<svg xmlns="http://www.w3.org/2000/svg" width="1600" height="1000" viewBox="0 0 1600 1000" role="img" aria-label="Soft peach travel background">
  <defs>
    <linearGradient id="sky" x1="0" y1="0" x2="1" y2="1">
      <stop offset="0%" stop-color="#f7ebe3"/>
      <stop offset="45%" stop-color="#f3e6dc"/>
      <stop offset="100%" stop-color="#e8ddd0"/>
    </linearGradient>
    <linearGradient id="hill" x1="0" y1="0" x2="0" y2="1">
      <stop offset="0%" stop-color="#e6b59f"/>
      <stop offset="100%" stop-color="#d49278"/>
    </linearGradient>
    <linearGradient id="hill2" x1="0" y1="0" x2="0" y2="1">
      <stop offset="0%" stop-color="#c4b8a4"/>
      <stop offset="100%" stop-color="#a8a08c"/>
    </linearGradient>
    <radialGradient id="glow" cx="70%" cy="28%" r="35%">
      <stop offset="0%" stop-color="#fff8f4" stop-opacity="0.9"/>
      <stop offset="100%" stop-color="#fff8f4" stop-opacity="0"/>
    </radialGradient>
  </defs>
  <rect width="1600" height="1000" fill="url(#sky)"/>
  <rect width="1600" height="1000" fill="url(#glow)"/>
  <circle cx="1180" cy="220" r="90" fill="#f0c9b4" opacity="0.45"/>
  <circle cx="1120" cy="260" r="48" fill="#fff4ee" opacity="0.5"/>
  <path d="M0 640 C280 540 420 700 680 620 C920 540 1100 700 1380 610 C1500 560 1560 600 1600 580 L1600 1000 L0 1000 Z" fill="url(#hill2)" opacity="0.5"/>
  <path d="M0 760 C260 680 480 820 760 730 C1040 640 1240 800 1600 720 L1600 1000 L0 1000 Z" fill="url(#hill)" opacity="0.65"/>
  <g opacity="0.4">
    <circle cx="240" cy="780" r="18" fill="#fff6f0"/>
    <circle cx="220" cy="768" r="14" fill="#e8b49c"/>
    <circle cx="258" cy="768" r="14" fill="#e8b49c"/>
    <circle cx="228" cy="798" r="14" fill="#d49278"/>
    <circle cx="252" cy="798" r="14" fill="#d49278"/>
    <circle cx="240" cy="782" r="8" fill="#e8d48a"/>
  </g>
  <g opacity="0.35">
    <circle cx="1320" cy="820" r="22" fill="#fff6f0"/>
    <circle cx="1296" cy="804" r="16" fill="#c4b8a4"/>
    <circle cx="1344" cy="804" r="16" fill="#c4b8a4"/>
    <circle cx="1304" cy="840" r="16" fill="#a8a08c"/>
    <circle cx="1336" cy="840" r="16" fill="#a8a08c"/>
    <circle cx="1320" cy="822" r="9" fill="#e8d48a"/>
  </g>
</svg>
